<svg xmlns="http://www.w3.org/2000/svg" xmlns:xlink="http://www.w3.org/1999/xlink" width="500" zoomAndPan="magnify" viewBox="0 0 375 374.999991" height="500" preserveAspectRatio="xMidYMid meet" version="1.0"><defs><g/><clipPath id="id1"><path d="M 2.375 156.875 L 372.875 156.875 L 372.875 218.375 L 2.375 218.375 Z M 2.375 156.875 " clip-rule="nonzero"/></clipPath></defs><g fill="#000000" fill-opacity="1"><g transform="translate(56.154007, 288.34502)"><g><path d="M 50.148438 -169.289062 L 64.835938 -169.289062 C 74.925781 -169.289062 81.898438 -163.5 81.898438 -151.039062 L 81.898438 -53.859375 C 81.898438 -43.769531 75.519531 -36.054688 65.578125 -35.757812 L 50.148438 -35.757812 Z M 10.683594 -5.636719 C 10.683594 -2.078125 12.316406 0 15.726562 0 L 67.507812 0 C 97.773438 -0.296875 121.363281 -18.546875 121.363281 -52.671875 L 121.363281 -152.671875 C 121.363281 -186.644531 97.921875 -205.042969 67.210938 -205.339844 L 15.726562 -205.339844 C 12.609375 -205.339844 10.683594 -203.117188 10.683594 -199.554688 Z M 10.683594 -5.636719 "/></g></g></g><g fill="#000000" fill-opacity="1"><g transform="translate(200.130357, 288.34502)"><g><path d="M 74.628906 -145.84375 C 74.628906 -141.691406 75.222656 -140.207031 78.929688 -140.207031 L 105.488281 -140.207031 C 110.238281 -140.207031 111.277344 -141.691406 111.277344 -145.84375 L 111.277344 -154.300781 C 111.277344 -187.089844 89.316406 -208.457031 58.605469 -208.457031 C 37.832031 -208.457031 5.933594 -193.769531 5.933594 -155.191406 C 5.933594 -121.214844 19.882812 -111.425781 50.890625 -86.203125 C 69.140625 -71.363281 76.855469 -64.6875 76.855469 -50.296875 C 76.855469 -39.464844 69.289062 -32.640625 59.941406 -32.640625 C 52.375 -32.640625 43.027344 -37.386719 43.027344 -52.226562 L 43.027344 -58.902344 C 43.027344 -63.351562 42.136719 -64.984375 37.980469 -64.984375 L 10.980469 -64.984375 C 6.824219 -64.984375 5.933594 -62.90625 5.933594 -57.863281 L 5.933594 -50 C 5.933594 -22.105469 23.886719 3.265625 59.644531 3.265625 C 92.433594 3.265625 114.390625 -20.476562 114.390625 -48.21875 C 114.390625 -85.757812 92.285156 -101.929688 64.539062 -123.441406 C 51.335938 -133.679688 42.582031 -140.058594 42.582031 -154.152344 C 42.582031 -167.65625 51.1875 -172.847656 58.605469 -172.847656 C 69.289062 -172.847656 74.628906 -164.390625 74.628906 -154.152344 Z M 74.628906 -145.84375 "/></g></g></g><g clip-path="url(#id1)"><path fill="#ffffff" d="M 2.394531 156.875 L 372.851562 156.875 L 372.851562 218.375 L 2.394531 218.375 L 2.394531 156.875 " fill-opacity="1" fill-rule="nonzero"/></g><g fill="#000000" fill-opacity="1"><g transform="translate(51.234852, 197.185676)"><g><path d="M 4.511719 -15.230469 L 5.832031 -15.230469 C 6.742188 -15.230469 7.367188 -14.710938 7.367188 -13.589844 L 7.367188 -4.84375 C 7.367188 -3.9375 6.792969 -3.242188 5.898438 -3.21875 L 4.511719 -3.21875 Z M 0.960938 -0.507812 C 0.960938 -0.1875 1.109375 0 1.414062 0 L 6.074219 0 C 8.796875 -0.0273438 10.917969 -1.667969 10.917969 -4.738281 L 10.917969 -13.734375 C 10.917969 -16.792969 8.808594 -18.445312 6.046875 -18.472656 L 1.414062 -18.472656 C 1.132812 -18.472656 0.960938 -18.273438 0.960938 -17.953125 Z M 0.960938 -0.507812 "/></g></g></g><g fill="#000000" fill-opacity="1"><g transform="translate(76.902138, 197.185676)"><g><path d="M 4.511719 -3.21875 L 4.511719 -7.742188 L 8.410156 -7.742188 C 8.664062 -7.742188 8.835938 -7.875 8.835938 -8.195312 L 8.835938 -10.476562 C 8.835938 -10.8125 8.636719 -10.945312 8.410156 -10.945312 L 4.511719 -10.945312 L 4.511719 -15.230469 L 9.398438 -15.230469 C 9.636719 -15.230469 9.769531 -15.390625 9.769531 -15.710938 L 9.769531 -17.980469 C 9.769531 -18.3125 9.636719 -18.472656 9.398438 -18.472656 L 1.414062 -18.472656 C 1.132812 -18.472656 0.960938 -18.273438 0.960938 -17.953125 L 0.960938 -0.507812 C 0.960938 -0.1875 1.109375 0 1.414062 0 L 9.464844 0 C 9.675781 0 9.851562 -0.148438 9.851562 -0.46875 L 9.851562 -2.761719 C 9.851562 -3.070312 9.675781 -3.21875 9.464844 -3.21875 Z M 4.511719 -3.21875 "/></g></g></g><g fill="#000000" fill-opacity="1"><g transform="translate(101.141547, 197.185676)"><g><path d="M 6.714844 -13.121094 C 6.714844 -12.746094 6.765625 -12.613281 7.101562 -12.613281 L 9.492188 -12.613281 C 9.917969 -12.613281 10.011719 -12.746094 10.011719 -13.121094 L 10.011719 -13.882812 C 10.011719 -16.832031 8.035156 -18.753906 5.273438 -18.753906 C 3.402344 -18.753906 0.535156 -17.433594 0.535156 -13.960938 C 0.535156 -10.90625 1.789062 -10.023438 4.578125 -7.753906 C 6.21875 -6.421875 6.914062 -5.820312 6.914062 -4.523438 C 6.914062 -3.550781 6.234375 -2.9375 5.390625 -2.9375 C 4.710938 -2.9375 3.871094 -3.363281 3.871094 -4.699219 L 3.871094 -5.300781 C 3.871094 -5.699219 3.789062 -5.847656 3.417969 -5.847656 L 0.988281 -5.847656 C 0.613281 -5.847656 0.535156 -5.660156 0.535156 -5.207031 L 0.535156 -4.5 C 0.535156 -1.988281 2.148438 0.292969 5.367188 0.292969 C 8.316406 0.292969 10.292969 -1.84375 10.292969 -4.339844 C 10.292969 -7.714844 8.300781 -9.171875 5.804688 -11.105469 C 4.617188 -12.027344 3.832031 -12.601562 3.832031 -13.867188 C 3.832031 -15.082031 4.605469 -15.550781 5.273438 -15.550781 C 6.234375 -15.550781 6.714844 -14.789062 6.714844 -13.867188 Z M 6.714844 -13.121094 "/></g></g></g><g fill="#000000" fill-opacity="1"><g transform="translate(125.901393, 197.185676)"><g><path d="M 4.511719 -17.953125 C 4.511719 -18.273438 4.378906 -18.472656 4.070312 -18.472656 L 1.402344 -18.472656 C 1.121094 -18.472656 0.960938 -18.273438 0.960938 -17.953125 L 0.960938 -0.507812 C 0.960938 -0.1875 1.09375 0 1.402344 0 L 4.070312 0 C 4.378906 0 4.511719 -0.1875 4.511719 -0.507812 Z M 4.511719 -17.953125 "/></g></g></g><g fill="#000000" fill-opacity="1"><g transform="translate(145.470145, 197.185676)"><g><path d="M 7.113281 -4.445312 C 7.113281 -3.605469 6.488281 -2.921875 5.632812 -2.921875 C 4.84375 -2.921875 4.21875 -3.5625 4.21875 -4.511719 L 4.21875 -14 C 4.21875 -14.855469 4.765625 -15.550781 5.621094 -15.550781 C 6.527344 -15.550781 7.046875 -14.761719 7.046875 -13.960938 L 7.046875 -12.789062 C 7.046875 -12.425781 7.128906 -12.28125 7.433594 -12.28125 L 9.957031 -12.28125 C 10.265625 -12.28125 10.371094 -12.441406 10.371094 -12.839844 L 10.371094 -14.054688 C 10.371094 -15.75 9.398438 -18.753906 5.644531 -18.753906 C 2.964844 -18.753906 0.667969 -17.019531 0.667969 -14.121094 L 0.667969 -4.339844 C 0.667969 -1.386719 3.003906 0.292969 5.632812 0.292969 C 8.316406 0.292969 10.453125 -1.441406 10.453125 -4.339844 L 10.453125 -9.476562 C 10.453125 -9.796875 10.292969 -9.984375 9.972656 -9.984375 L 6.125 -9.984375 C 5.859375 -9.984375 5.726562 -9.824219 5.726562 -9.515625 L 5.726562 -7.488281 C 5.726562 -7.167969 5.859375 -7.035156 6.125 -7.035156 L 7.113281 -7.035156 Z M 7.113281 -4.445312 "/></g></g></g><g fill="#000000" fill-opacity="1"><g transform="translate(170.616992, 197.185676)"><g><path d="M 10.382812 0 C 10.679688 0 10.8125 -0.265625 10.8125 -0.535156 L 10.8125 -14.136719 C 10.8125 -16.699219 8.488281 -18.765625 5.820312 -18.765625 C 3.148438 -18.765625 0.839844 -16.699219 0.839844 -14.136719 L 0.839844 -0.519531 C 0.839844 -0.242188 0.988281 0 1.1875 0 L 4.003906 0 C 4.3125 0 4.40625 -0.226562 4.40625 -0.519531 L 4.40625 -13.933594 C 4.40625 -14.777344 4.925781 -15.535156 5.832031 -15.535156 C 6.726562 -15.535156 7.246094 -14.777344 7.246094 -13.933594 L 7.246094 -0.535156 C 7.246094 -0.253906 7.40625 0 7.675781 0 Z M 10.382812 0 "/></g></g></g><g fill="#000000" fill-opacity="1"><g transform="translate(196.351008, 197.185676)"><g/></g></g><g fill="#000000" fill-opacity="1"><g transform="translate(216.627021, 197.185676)"><g><path d="M 6.714844 -13.121094 C 6.714844 -12.746094 6.765625 -12.613281 7.101562 -12.613281 L 9.492188 -12.613281 C 9.917969 -12.613281 10.011719 -12.746094 10.011719 -13.121094 L 10.011719 -13.882812 C 10.011719 -16.832031 8.035156 -18.753906 5.273438 -18.753906 C 3.402344 -18.753906 0.535156 -17.433594 0.535156 -13.960938 C 0.535156 -10.90625 1.789062 -10.023438 4.578125 -7.753906 C 6.21875 -6.421875 6.914062 -5.820312 6.914062 -4.523438 C 6.914062 -3.550781 6.234375 -2.9375 5.390625 -2.9375 C 4.710938 -2.9375 3.871094 -3.363281 3.871094 -4.699219 L 3.871094 -5.300781 C 3.871094 -5.699219 3.789062 -5.847656 3.417969 -5.847656 L 0.988281 -5.847656 C 0.613281 -5.847656 0.535156 -5.660156 0.535156 -5.207031 L 0.535156 -4.5 C 0.535156 -1.988281 2.148438 0.292969 5.367188 0.292969 C 8.316406 0.292969 10.292969 -1.84375 10.292969 -4.339844 C 10.292969 -7.714844 8.300781 -9.171875 5.804688 -11.105469 C 4.617188 -12.027344 3.832031 -12.601562 3.832031 -13.867188 C 3.832031 -15.082031 4.605469 -15.550781 5.273438 -15.550781 C 6.234375 -15.550781 6.714844 -14.789062 6.714844 -13.867188 Z M 6.714844 -13.121094 "/></g></g></g><g fill="#000000" fill-opacity="1"><g transform="translate(241.386871, 197.185676)"><g><path d="M 8.902344 -15.230469 C 9.128906 -15.230469 9.289062 -15.390625 9.289062 -15.710938 L 9.289062 -17.992188 C 9.289062 -18.3125 9.128906 -18.472656 8.902344 -18.472656 L 0.375 -18.472656 C 0.148438 -18.472656 -0.0117188 -18.300781 -0.0117188 -17.980469 L -0.0117188 -15.710938 C -0.0117188 -15.390625 0.148438 -15.230469 0.375 -15.230469 L 2.855469 -15.230469 L 2.855469 -0.46875 C 2.855469 -0.160156 3.015625 0 3.242188 0 L 6.035156 0 C 6.246094 0 6.421875 -0.160156 6.421875 -0.46875 L 6.421875 -15.230469 Z M 8.902344 -15.230469 "/></g></g></g><g fill="#000000" fill-opacity="1"><g transform="translate(264.732181, 197.185676)"><g><path d="M 10.636719 -14.121094 C 10.636719 -17.03125 8.316406 -18.753906 5.632812 -18.753906 C 2.964844 -18.753906 0.667969 -17.019531 0.667969 -14.121094 L 0.667969 -4.339844 C 0.667969 -1.507812 2.964844 0.292969 5.632812 0.292969 C 8.316406 0.292969 10.636719 -1.441406 10.636719 -4.339844 Z M 5.660156 -15.550781 C 6.554688 -15.550781 7.085938 -14.777344 7.085938 -13.921875 L 7.085938 -4.445312 C 7.085938 -3.605469 6.554688 -2.921875 5.632812 -2.921875 C 4.726562 -2.921875 4.21875 -3.683594 4.21875 -4.523438 L 4.21875 -13.921875 C 4.21875 -14.777344 4.75 -15.550781 5.660156 -15.550781 Z M 5.660156 -15.550781 "/></g></g></g><g fill="#000000" fill-opacity="1"><g transform="translate(290.119243, 197.185676)"><g><path d="M 7.382812 -11.4375 C 7.382812 -10.53125 6.820312 -9.929688 5.753906 -9.929688 L 4.511719 -9.929688 L 4.511719 -15.230469 L 5.847656 -15.230469 C 6.765625 -15.230469 7.382812 -14.617188 7.382812 -13.65625 Z M 10.34375 -0.0117188 C 10.703125 -0.0117188 10.824219 -0.332031 10.824219 -0.574219 L 10.824219 -2.976562 C 10.824219 -5.644531 10.238281 -7.328125 9.035156 -8.34375 C 10.117188 -9.0625 10.945312 -10.15625 10.945312 -11.746094 L 10.945312 -13.65625 C 10.945312 -16.3125 8.875 -18.472656 6.125 -18.472656 L 1.414062 -18.472656 C 1.132812 -18.472656 0.960938 -18.273438 0.960938 -17.953125 L 0.960938 -0.492188 C 0.960938 -0.1875 1.09375 0 1.402344 0 L 4.070312 0 C 4.363281 0 4.511719 -0.1875 4.511719 -0.492188 L 4.511719 -7.179688 C 6.339844 -7.0625 7.273438 -5.980469 7.273438 -3.402344 L 7.273438 -0.613281 C 7.273438 -0.214844 7.582031 -0.0117188 7.886719 -0.0117188 Z M 10.34375 -0.0117188 "/></g></g></g><g fill="#000000" fill-opacity="1"><g transform="translate(315.866603, 197.185676)"><g><path d="M 4.511719 -3.21875 L 4.511719 -7.742188 L 8.410156 -7.742188 C 8.664062 -7.742188 8.835938 -7.875 8.835938 -8.195312 L 8.835938 -10.476562 C 8.835938 -10.8125 8.636719 -10.945312 8.410156 -10.945312 L 4.511719 -10.945312 L 4.511719 -15.230469 L 9.398438 -15.230469 C 9.636719 -15.230469 9.769531 -15.390625 9.769531 -15.710938 L 9.769531 -17.980469 C 9.769531 -18.3125 9.636719 -18.472656 9.398438 -18.472656 L 1.414062 -18.472656 C 1.132812 -18.472656 0.960938 -18.273438 0.960938 -17.953125 L 0.960938 -0.507812 C 0.960938 -0.1875 1.109375 0 1.414062 0 L 9.464844 0 C 9.675781 0 9.851562 -0.148438 9.851562 -0.46875 L 9.851562 -2.761719 C 9.851562 -3.070312 9.675781 -3.21875 9.464844 -3.21875 Z M 4.511719 -3.21875 "/></g></g></g><path stroke-linecap="butt" transform="matrix(3.753086, 0, 0, 3.71134, 45.115, 157.980326)" fill="none" stroke-linejoin="miter" d="M -0.00045794 0.000038564 L 75.939132 0.000038564 " stroke="#000000" stroke-width="1" stroke-opacity="1" stroke-miterlimit="4"/><path stroke-linecap="butt" transform="matrix(3.753086, 0, 0, 3.71134, 45.115, 216.952003)" fill="none" stroke-linejoin="miter" d="M -0.00045794 0.000302221 L 75.939132 0.000302221 " stroke="#000000" stroke-width="1" stroke-opacity="1" stroke-miterlimit="4"/></svg>